<svg width="24" height="24" viewBox="0 0 24 24" fill="none" xmlns="http://www.w3.org/2000/svg">
<path d="M13.0756 13.0753L19.6248 13.0825C20.2227 13.0824 20.7075 12.5977 20.7075 11.9998C20.7076 11.4018 20.2229 10.9171 19.625 10.9172L13.0757 10.9253L13.0838 4.37606C13.0839 3.77813 12.5992 3.29345 12.0013 3.2935C11.4033 3.29354 10.9186 3.77829 10.9186 4.37621L10.9257 10.9254L4.37649 10.9183C4.089 10.9171 3.81293 11.0308 3.60962 11.2341C3.40632 11.4374 3.29261 11.7135 3.29377 12.001C3.29257 12.2885 3.40624 12.5645 3.60951 12.7678C3.81279 12.9711 4.08884 13.0848 4.37634 13.0836L10.9256 13.0755L10.9175 19.6247C10.9163 19.9122 11.0299 20.1882 11.2332 20.3915C11.4365 20.5948 11.7125 20.7085 12 20.7073C12.2875 20.7084 12.5636 20.5947 12.7669 20.3914C12.9702 20.1881 13.0839 19.912 13.0828 19.6245L13.0756 13.0753Z" fill="#8999B0"/>
</svg>
