<svg width="24" height="24" viewBox="0 0 24 24" fill="none" xmlns="http://www.w3.org/2000/svg">
<path fillRule="evenodd" clipRule="evenodd" d="M2 12.001C2 6.47813 6.47715 2.00098 12 2.00098C14.6522 2.00098 17.1957 3.05454 19.0711 4.92991C20.9464 6.80527 22 9.34881 22 12.001C22 17.5238 17.5228 22.001 12 22.001C6.47715 22.001 2 17.5238 2 12.001ZM11.73 15.611L16.3 9.61098V9.58098C16.5179 9.29516 16.5668 8.9148 16.4283 8.58316C16.2897 8.25152 15.9848 8.01898 15.6283 7.97316C15.2718 7.92733 14.9179 8.07516 14.7 8.36098L10.92 13.361L9.29 11.281C9.07028 10.9987 8.71668 10.8552 8.36239 10.9043C8.00811 10.9535 7.70696 11.1879 7.57239 11.5193C7.43783 11.8507 7.49028 12.2287 7.71 12.511L10.15 15.621C10.3408 15.8625 10.6322 16.0026 10.94 16.001C11.2495 16.0002 11.5412 15.8562 11.73 15.611Z" fill="#8999B0"/>
</svg>
