<svg width="24" height="24" viewBox="0 0 24 24" fill="none" xmlns="http://www.w3.org/2000/svg">
<path fillRule="evenodd" clipRule="evenodd" d="M15.5535 5.45285L17.8368 7.73618C18.4752 8.34432 18.5012 9.35423 17.8952 9.99451L10.3952 17.4945C10.1235 17.7639 9.7675 17.9316 9.38684 17.9695L5.91184 18.2862H5.83684C5.61534 18.2875 5.40244 18.2005 5.24517 18.0445C5.06937 17.8694 4.98078 17.625 5.00351 17.3778L5.36184 13.9028C5.39976 13.5222 5.56748 13.1661 5.83684 12.8945L13.3368 5.39451C13.9834 4.84831 14.9366 4.87339 15.5535 5.45285ZM12.7702 8.28618L15.0035 10.5195L16.6702 8.89451L14.3952 6.61951L12.7702 8.28618Z" fill="#8999B0"/>
</svg>
