<svg width="22" height="15" viewBox="0 0 22 15" fill="none" xmlns="http://www.w3.org/2000/svg">
<path fillRule="evenodd" clipRule="evenodd" d="M20.8699 7.50036C20.2299 6.39036 16.7099 0.82036 10.7299 1.00036C5.19995 1.14036 1.99995 6.00036 1.12995 7.50036C0.951313 7.80976 0.951313 8.19096 1.12995 8.50036C1.75995 9.59036 5.12995 15.0004 11.0199 15.0004H11.2699C16.7999 14.8604 20.0099 10.0004 20.8699 8.50036C21.0486 8.19096 21.0486 7.80976 20.8699 7.50036ZM10.9999 11.5004C9.06695 11.5004 7.49995 9.93336 7.49995 8.00036C7.49995 6.06736 9.06695 4.50036 10.9999 4.50036C12.9329 4.50036 14.4999 6.06736 14.4999 8.00036C14.4999 9.93336 12.9329 11.5004 10.9999 11.5004ZM10.9999 9.50036C11.8284 9.50036 12.4999 8.82879 12.4999 8.00036C12.4999 7.17193 11.8284 6.50036 10.9999 6.50036C10.1715 6.50036 9.49995 7.17193 9.49995 8.00036C9.49995 8.82879 10.1715 9.50036 10.9999 9.50036Z" fill="#8999B0"/>
</svg>
