<svg width="24" height="24" viewBox="0 0 24 24" fill="none" xmlns="http://www.w3.org/2000/svg">
<path d="M9.49996 11.1676C11.3409 11.1676 12.8333 9.67526 12.8333 7.83431C12.8333 5.99336 11.3409 4.50098 9.49996 4.50098C7.65901 4.50098 6.16663 5.99336 6.16663 7.83431C6.16663 9.67526 7.65901 11.1676 9.49996 11.1676Z" fill="#8999B0"/>
<path d="M16.1666 12.834C17.5473 12.834 18.6666 11.7147 18.6666 10.334C18.6666 8.95327 17.5473 7.83398 16.1666 7.83398C14.7859 7.83398 13.6666 8.95327 13.6666 10.334C13.6666 11.7147 14.7859 12.834 16.1666 12.834Z" fill="#8999B0"/>
<path d="M19.5 18.6674C19.9602 18.6674 20.3333 18.2943 20.3333 17.8341C20.3319 16.2452 19.427 14.7954 18.0002 14.0961C16.5735 13.3969 14.8732 13.57 13.6166 14.5424C11.9475 12.8799 9.44222 12.3845 7.26598 13.2867C5.08975 14.1889 3.66981 16.3116 3.66663 18.6674C3.66663 19.1276 4.03972 19.5007 4.49996 19.5007H14.5C14.9602 19.5007 15.3333 19.1276 15.3333 18.6674" fill="#8999B0"/>
</svg>
