<svg width="24" height="24" viewBox="0 0 24 24" fill="none" xmlns="http://www.w3.org/2000/svg">
<path d="M12.3 21.0007H12.304C13.5267 21.0056 14.7383 20.7689 15.8692 20.3042C17.0001 19.8394 18.028 19.1558 18.8938 18.2926L12.3 21.0007ZM12.3 21.0007H12.2039C10.9667 20.9907 9.7439 20.7343 8.60691 20.2464C7.47122 19.759 6.44395 19.0504 5.585 18.1619C3.99104 16.4545 3.08505 14.2176 3.04167 11.882C2.99829 9.5461 3.82083 7.27684 5.35071 5.5113C6.33076 4.41464 7.56123 3.57101 8.93736 3.05216M12.3 21.0007L8.93736 3.05216M8.93736 3.05216C8.34433 4.7138 8.23076 6.50931 8.61037 8.23323C8.9949 9.97948 9.86952 11.5798 11.1316 12.8465L11.1316 12.8465L11.1373 12.8521C12.41 14.1092 14.0127 14.9801 15.7599 15.364C17.5044 15.7472 19.3217 15.6293 21.002 15.024C20.5414 16.2518 19.8225 17.3664 18.8939 18.2925L8.93736 3.05216Z" fill="#8999B0" stroke="#8999B0" strokeWidth="2"/>
</svg>
