<svg width="24" height="24" viewBox="0 0 24 24" fill="none" xmlns="http://www.w3.org/2000/svg">
<path d="M17 4.00098H15C14.4477 4.00098 14 4.44869 14 5.00098V19.001C14 19.5533 14.4477 20.001 15 20.001H17C17.5523 20.001 18 19.5533 18 19.001V5.00098C18 4.44869 17.5523 4.00098 17 4.00098Z" fill="#8999B0"/>
<path d="M9 4.00098H7C6.44772 4.00098 6 4.44869 6 5.00098V19.001C6 19.5533 6.44772 20.001 7 20.001H9C9.55228 20.001 10 19.5533 10 19.001V5.00098C10 4.44869 9.55228 4.00098 9 4.00098Z" fill="#8999B0"/>
</svg>
