<svg width="24" height="24" viewBox="0 0 24 24" fill="none" xmlns="http://www.w3.org/2000/svg">
<path d="M12.549 1.19365L21.7037 8.89583C21.8916 9.05297 22 9.28437 22 9.52821V19.7365C22 20.1932 21.3584 20.8392 20.8981 20.8392L14.5325 20.8391L14.5326 19.1844C16.3092 19.1847 17.8929 19.1849 18.8465 19.1851L19.063 19.1851C19.1649 19.1851 19.2573 19.1851 19.3394 19.1851L19.5539 19.1851C19.5741 19.1851 19.5931 19.1851 19.6109 19.1851L19.779 19.1852C20.2242 19.1852 20.3333 18.8688 20.3333 18.5846L20.3333 10.1052C20.3329 9.89159 20.3223 9.80339 20.0652 9.59063C19.8883 9.44424 17.2537 7.26421 12.1614 3.05054C12.1079 3.00625 11.9956 2.92045 11.8362 3.05254C11.7311 3.1396 9.06773 5.34346 3.84601 9.66411C3.78656 9.7133 3.66667 9.87816 3.66785 10.1255C3.6793 12.5109 3.68439 14.3831 3.68465 15.742L3.68465 15.9201C3.68445 17.4668 3.67763 18.3016 3.66667 18.4244C3.63504 18.7786 3.6983 19.1751 4.42799 19.1801C4.68255 19.1819 8.90192 19.1832 12.8539 19.184L12.8538 20.8391L3.1107 20.8392C2.65046 20.8392 2 20.1932 2 19.7365V9.52821C2 9.28437 2.10843 9.05297 2.29631 8.89583L11.4749 1.19365C11.7852 0.934148 12.2387 0.934148 12.549 1.19365Z" fill="#8999B0"/>
<path fillRule="evenodd" clipRule="evenodd" d="M12.4185 12.1156L8.88196 13.0771C8.7319 13.1179 8.62776 13.2542 8.62776 13.4097V20.5399C8.62776 20.6875 8.72174 20.8187 8.86148 20.8661L12.398 22.0681C12.5782 22.1293 12.7739 22.0329 12.8352 21.8527C12.8473 21.817 12.8535 21.7795 12.8535 21.7418V12.4481C12.8535 12.2578 12.6992 12.1035 12.5089 12.1035C12.4784 12.1035 12.448 12.1076 12.4185 12.1156Z" fill="#8999B0"/>
</svg>
