<svg width="32" height="32" viewBox="0 0 32 32" fill="none" xmlns="http://www.w3.org/2000/svg">
<rect width="32" height="32" rx="16" fill="white"/>
<path d="M13.5 15.1667C15.3409 15.1667 16.8333 13.6743 16.8333 11.8333C16.8333 9.99238 15.3409 8.5 13.5 8.5C11.659 8.5 10.1667 9.99238 10.1667 11.8333C10.1667 13.6743 11.659 15.1667 13.5 15.1667Z" fill="#8999B0"/>
<path d="M20.1667 16.833C21.5474 16.833 22.6667 15.7137 22.6667 14.333C22.6667 12.9523 21.5474 11.833 20.1667 11.833C18.7859 11.833 17.6667 12.9523 17.6667 14.333C17.6667 15.7137 18.7859 16.833 20.1667 16.833Z" fill="#8999B0"/>
<path d="M23.5 22.6664C23.9602 22.6664 24.3333 22.2933 24.3333 21.8331C24.332 20.2442 23.4271 18.7944 22.0003 18.0952C20.5735 17.3959 18.8733 17.569 17.6167 18.5414C15.9476 16.8789 13.4422 16.3835 11.266 17.2857C9.08978 18.1879 7.66984 20.3106 7.66666 22.6664C7.66666 23.1267 8.03975 23.4998 8.49999 23.4998H18.5C18.9602 23.4998 19.3333 23.1267 19.3333 22.6664" fill="#8999B0"/>
</svg>
