<svg width="24" height="24" viewBox="0 0 24 24" fill="none" xmlns="http://www.w3.org/2000/svg">
<path d="M6.17383 15.4775L3.24414 18.7529H6.37891C6.63281 18.7529 6.82422 18.8135 6.95312 18.9346C7.08203 19.0518 7.14648 19.2041 7.14648 19.3916C7.14648 19.5713 7.08203 19.7178 6.95312 19.8311C6.82812 19.9443 6.63672 20.001 6.37891 20.001H2.04297C1.73828 20.001 1.50977 19.9346 1.35742 19.8018C1.20898 19.6689 1.13477 19.4873 1.13477 19.2568C1.13477 19.1201 1.1875 18.9834 1.29297 18.8467C1.39844 18.7061 1.61719 18.4502 1.94922 18.0791C2.30078 17.6885 2.61914 17.335 2.9043 17.0186C3.19336 16.7021 3.46094 16.4072 3.70703 16.1338C3.95312 15.8564 4.15625 15.6221 4.31641 15.4307C4.48047 15.2393 4.61133 15.0752 4.70898 14.9385H2.33008C2.00195 14.9385 1.75391 14.9092 1.58594 14.8506C1.41797 14.792 1.33398 14.6377 1.33398 14.3877C1.33398 14.2041 1.39648 14.0576 1.52148 13.9482C1.65039 13.8389 1.83203 13.7842 2.06641 13.7842H5.74023C6.08008 13.7842 6.33984 13.835 6.51953 13.9365C6.70312 14.0342 6.79492 14.2119 6.79492 14.4697C6.79492 14.5557 6.77734 14.6455 6.74219 14.7393C6.70703 14.8291 6.66797 14.9033 6.625 14.9619C6.58203 15.0205 6.52344 15.0928 6.44922 15.1787C6.375 15.2607 6.2832 15.3604 6.17383 15.4775Z" fill="#8999B0"/>
<path d="M14.8984 9.96973L10.9922 14.3369H15.1719C15.5104 14.3369 15.7656 14.4176 15.9375 14.5791C16.1094 14.7354 16.1953 14.9385 16.1953 15.1885C16.1953 15.4281 16.1094 15.6234 15.9375 15.7744C15.7708 15.9255 15.5156 16.001 15.1719 16.001H9.39062C8.98438 16.001 8.67969 15.9124 8.47656 15.7354C8.27865 15.5583 8.17969 15.3161 8.17969 15.0088C8.17969 14.8265 8.25 14.6442 8.39062 14.4619C8.53125 14.2744 8.82292 13.9333 9.26562 13.4385C9.73438 12.9176 10.1589 12.4463 10.5391 12.0244C10.9245 11.6025 11.2812 11.2093 11.6094 10.8447C11.9375 10.4749 12.2083 10.1624 12.4219 9.90723C12.6406 9.65202 12.8151 9.43327 12.9453 9.25098H9.77344C9.33594 9.25098 9.00521 9.21191 8.78125 9.13379C8.55729 9.05566 8.44531 8.84994 8.44531 8.5166C8.44531 8.27181 8.52865 8.0765 8.69531 7.93066C8.86719 7.78483 9.10938 7.71191 9.42188 7.71191H14.3203C14.7734 7.71191 15.1198 7.77962 15.3594 7.91504C15.6042 8.04525 15.7266 8.28223 15.7266 8.62598C15.7266 8.74056 15.7031 8.86035 15.6562 8.98535C15.6094 9.10514 15.5573 9.2041 15.5 9.28223C15.4427 9.36035 15.3646 9.45671 15.2656 9.57129C15.1667 9.68066 15.0443 9.81348 14.8984 9.96973Z" fill="#8999B0"/>
<path d="M22.0273 5.69434L19.0977 8.96973H22.2324C22.4863 8.96973 22.6777 9.03027 22.8066 9.15137C22.9355 9.26855 23 9.4209 23 9.6084C23 9.78809 22.9355 9.93457 22.8066 10.0479C22.6816 10.1611 22.4902 10.2178 22.2324 10.2178H17.8965C17.5918 10.2178 17.3633 10.1514 17.2109 10.0186C17.0625 9.88574 16.9883 9.7041 16.9883 9.47363C16.9883 9.33691 17.041 9.2002 17.1465 9.06348C17.252 8.92285 17.4707 8.66699 17.8027 8.2959C18.1543 7.90527 18.4727 7.55176 18.7578 7.23535C19.0469 6.91895 19.3145 6.62402 19.5605 6.35059C19.8066 6.07324 20.0098 5.83887 20.1699 5.64746C20.334 5.45605 20.4648 5.29199 20.5625 5.15527H18.1836C17.8555 5.15527 17.6074 5.12598 17.4395 5.06738C17.2715 5.00879 17.1875 4.85449 17.1875 4.60449C17.1875 4.4209 17.25 4.27441 17.375 4.16504C17.5039 4.05566 17.6855 4.00098 17.9199 4.00098H21.5938C21.9336 4.00098 22.1934 4.05176 22.373 4.15332C22.5566 4.25098 22.6484 4.42871 22.6484 4.68652C22.6484 4.77246 22.6309 4.8623 22.5957 4.95605C22.5605 5.0459 22.5215 5.12012 22.4785 5.17871C22.4355 5.2373 22.377 5.30957 22.3027 5.39551C22.2285 5.47754 22.1367 5.57715 22.0273 5.69434Z" fill="#8999B0"/>
<path d="M6.17383 15.4775L3.24414 18.7529H6.37891C6.63281 18.7529 6.82422 18.8135 6.95312 18.9346C7.08203 19.0518 7.14648 19.2041 7.14648 19.3916C7.14648 19.5713 7.08203 19.7178 6.95312 19.8311C6.82812 19.9443 6.63672 20.001 6.37891 20.001H2.04297C1.73828 20.001 1.50977 19.9346 1.35742 19.8018C1.20898 19.6689 1.13477 19.4873 1.13477 19.2568C1.13477 19.1201 1.1875 18.9834 1.29297 18.8467C1.39844 18.7061 1.61719 18.4502 1.94922 18.0791C2.30078 17.6885 2.61914 17.335 2.9043 17.0186C3.19336 16.7021 3.46094 16.4072 3.70703 16.1338C3.95312 15.8564 4.15625 15.6221 4.31641 15.4307C4.48047 15.2393 4.61133 15.0752 4.70898 14.9385H2.33008C2.00195 14.9385 1.75391 14.9092 1.58594 14.8506C1.41797 14.792 1.33398 14.6377 1.33398 14.3877C1.33398 14.2041 1.39648 14.0576 1.52148 13.9482C1.65039 13.8389 1.83203 13.7842 2.06641 13.7842H5.74023C6.08008 13.7842 6.33984 13.835 6.51953 13.9365C6.70312 14.0342 6.79492 14.2119 6.79492 14.4697C6.79492 14.5557 6.77734 14.6455 6.74219 14.7393C6.70703 14.8291 6.66797 14.9033 6.625 14.9619C6.58203 15.0205 6.52344 15.0928 6.44922 15.1787C6.375 15.2607 6.2832 15.3604 6.17383 15.4775Z" stroke="#8999B0"/>
<path d="M14.8984 9.96973L10.9922 14.3369H15.1719C15.5104 14.3369 15.7656 14.4176 15.9375 14.5791C16.1094 14.7354 16.1953 14.9385 16.1953 15.1885C16.1953 15.4281 16.1094 15.6234 15.9375 15.7744C15.7708 15.9255 15.5156 16.001 15.1719 16.001H9.39062C8.98438 16.001 8.67969 15.9124 8.47656 15.7354C8.27865 15.5583 8.17969 15.3161 8.17969 15.0088C8.17969 14.8265 8.25 14.6442 8.39062 14.4619C8.53125 14.2744 8.82292 13.9333 9.26562 13.4385C9.73438 12.9176 10.1589 12.4463 10.5391 12.0244C10.9245 11.6025 11.2812 11.2093 11.6094 10.8447C11.9375 10.4749 12.2083 10.1624 12.4219 9.90723C12.6406 9.65202 12.8151 9.43327 12.9453 9.25098H9.77344C9.33594 9.25098 9.00521 9.21191 8.78125 9.13379C8.55729 9.05566 8.44531 8.84994 8.44531 8.5166C8.44531 8.27181 8.52865 8.0765 8.69531 7.93066C8.86719 7.78483 9.10938 7.71191 9.42188 7.71191H14.3203C14.7734 7.71191 15.1198 7.77962 15.3594 7.91504C15.6042 8.04525 15.7266 8.28223 15.7266 8.62598C15.7266 8.74056 15.7031 8.86035 15.6562 8.98535C15.6094 9.10514 15.5573 9.2041 15.5 9.28223C15.4427 9.36035 15.3646 9.45671 15.2656 9.57129C15.1667 9.68066 15.0443 9.81348 14.8984 9.96973Z" stroke="#8999B0"/>
<path d="M22.0273 5.69434L19.0977 8.96973H22.2324C22.4863 8.96973 22.6777 9.03027 22.8066 9.15137C22.9355 9.26855 23 9.4209 23 9.6084C23 9.78809 22.9355 9.93457 22.8066 10.0479C22.6816 10.1611 22.4902 10.2178 22.2324 10.2178H17.8965C17.5918 10.2178 17.3633 10.1514 17.2109 10.0186C17.0625 9.88574 16.9883 9.7041 16.9883 9.47363C16.9883 9.33691 17.041 9.2002 17.1465 9.06348C17.252 8.92285 17.4707 8.66699 17.8027 8.2959C18.1543 7.90527 18.4727 7.55176 18.7578 7.23535C19.0469 6.91895 19.3145 6.62402 19.5605 6.35059C19.8066 6.07324 20.0098 5.83887 20.1699 5.64746C20.334 5.45605 20.4648 5.29199 20.5625 5.15527H18.1836C17.8555 5.15527 17.6074 5.12598 17.4395 5.06738C17.2715 5.00879 17.1875 4.85449 17.1875 4.60449C17.1875 4.4209 17.25 4.27441 17.375 4.16504C17.5039 4.05566 17.6855 4.00098 17.9199 4.00098H21.5938C21.9336 4.00098 22.1934 4.05176 22.373 4.15332C22.5566 4.25098 22.6484 4.42871 22.6484 4.68652C22.6484 4.77246 22.6309 4.8623 22.5957 4.95605C22.5605 5.0459 22.5215 5.12012 22.4785 5.17871C22.4355 5.2373 22.377 5.30957 22.3027 5.39551C22.2285 5.47754 22.1367 5.57715 22.0273 5.69434Z" stroke="#8999B0"/>
</svg>
